<svg fill="#FFFFFF" xmlns="http://www.w3.org/2000/svg"  viewBox="0 0 50 50" width="25px" height="25px"><path d="M24.5,27c-0.276,0-0.5,0.224-0.5,0.5c0,0.155,0,6.843,0,7c0,0.276,0.224,0.5,0.5,0.5s0.5-0.224,0.5-0.5c0-0.157,0-6.845,0-7	C25,27.224,24.776,27,24.5,27z M28.5,27c-0.276,0-0.5,0.224-0.5,0.5c0,0.155,0,6.843,0,7c0,0.276,0.224,0.5,0.5,0.5	s0.5-0.224,0.5-0.5c0-0.157,0-6.845,0-7C29,27.224,28.776,27,28.5,27z M32.5,27c-0.276,0-0.5,0.224-0.5,0.5c0,0.155,0,6.843,0,7	c0,0.276,0.224,0.5,0.5,0.5s0.5-0.224,0.5-0.5c0-0.157,0-6.845,0-7C33,27.224,32.776,27,32.5,27z M38.691,18.047	c1.738,0.7,2.309,2.458,2.309,3.735c0,0.579-0.003,3.002-0.003,3.652c0,8.37-4.128,8.532-4.128,12.906	c0,1.16,0.282,2.435,0.027,2.829C36.641,41.563,35.591,42,34.4,42c-0.092,0-1.419,0-1.52,0c-2.18,0-3.372-2.146-3.372-2.146	S28.01,42,26.543,42c-0.681,0-5.412,0-6.518,0c-0.268,0-0.968-0.065-1.382-0.703c-0.415-0.638,0.155-2.086-0.213-2.562	c-0.929-1.205-3.883-4.445-4.716-6.343C11.219,26.701,8,24.876,8,22.889c0-2.55,1.302-3.281,2.843-3.281	c2.785,0,5.825,3.925,5.825,3.925s-2.202-9.356-2.451-10.836c-0.525-3.125-0.035-5.463,2.001-5.845	c2.329-0.437,3.656,2.187,4.657,4.633c0.607,1.483,1.892,5.094,1.892,5.094s1.501-1.256,3.196-1.065	c2.082,0.235,2.948,1.63,2.948,1.63s1.29-1.16,3.137-0.987c2.412,0.227,3.245,2.235,3.245,2.235S36.777,17.275,38.691,18.047z"/></svg>